# xmcd
#
# Track frame offsets: 
#        150
#        18294
#        36771
#        51261
#        66504
#        85962
#        103317
#        115089
#        148527
#        162759
#        183503
#        199127
#        215605
#        234197
#        253469
#        272001
#        292166
#        313426
#        326078
#
# Disc length: 4528 seconds
#
# Revision: 2
# Processed by: cddbd v1.5.2PL0 Copyright (c) Steve Scherf et al.
# Submitted via: ExactAudioCopyFreeDBPlugin 1.0
#
DISCID=2d11ae13
DTITLE=Various Artist - Super Party Hits
DYEAR=2003
DGENRE=
TTITLE0=Hermes House Band - I will survive
TTITLE1=Patrick Sebastien - Pourvu que ça dure
TTITLE2=Pierre Bachelet - Les Bronzes font du ski
TTITLE3=Felicien - cum-cum Mania
TTITLE4=Claude François - Alexandrie Alexandra
TTITLE5=Gilbert Montagne - Le Sunlight des Tropiques
TTITLE6=Joe Dassin - Les Champs-Elysées
TTITLE7=Dalida - Gigi L'Amoroso
TTITLE8=Patrick Hernandez - Born to be alive
TTITLE9=Village People - YMCA
TTITLE10=Chic - Le Freak
TTITLE11=Boys Town Gang - Can't take my eyes off you
TTITLE12=Bandolero - Paris Latino
TTITLE13=Desireless - Voyage, Voyage
TTITLE14=Debut de soirée - Nuit de folie
TTITLE15=Jeanne Mas - En rouge et noir
TTITLE16=Jive Bunny and The Master Mixers  - Swing the Mood
TTITLE17=Los Lobos  - La Bamba
TTITLE18=Roy Orbison - Pretty Woman
EXTD=
EXTT0=
EXTT1=
EXTT2=
EXTT3=
EXTT4=
EXTT5=
EXTT6=
EXTT7=
EXTT8=
EXTT9=
EXTT10=
EXTT11=
EXTT12=
EXTT13=
EXTT14=
EXTT15=
EXTT16=
EXTT17=
EXTT18=
PLAYORDER=
